<?xml version="1.0" encoding="utf-8" ?>
<svg xmlns="http://www.w3.org/2000/svg" xmlns:xlink="http://www.w3.org/1999/xlink" width="1024" height="1024">
	<path fill="#173051" d="M0 0L1024 0L1024 1024L0 1024L0 0ZM511.477 102.512C509.351 104.932 508.418 107.053 508.654 110.314C509.364 120.113 513.625 130.46 515.907 140.062C519.25 154.132 520.297 168.453 520.581 182.871C511.45 188.314 491.923 197.507 485.156 203.974C483.961 209.714 483.851 216.608 481.016 221.781C477.691 227.848 444.863 248.608 436.5 254.102C430.607 257.973 407.529 269.499 404.846 272.716C402.37 275.685 401.551 280.331 400.777 284.021C398.749 293.679 396.333 305.125 402.171 313.903C404.065 316.751 406.295 319.398 408.064 322.321C407.522 329.4 406.267 335.557 411.29 341.5C414.333 345.102 418.965 347.591 423.691 347.914C428.252 348.226 431.002 346.773 434.498 344.039C441.424 349.147 452.518 357.575 461.706 356.321C469.219 355.296 474.343 348.057 480.09 343.839C496.02 332.147 520.216 327.688 539.47 331.21L539.026 331.743C533.274 338.559 525.914 344.368 519.585 350.687C509.816 360.44 500.577 371.009 491.819 381.68Q487.282 387.283 482.872 392.987Q478.463 398.691 474.184 404.493Q469.905 410.296 465.759 416.194Q461.612 422.092 457.6 428.082Q453.588 434.072 449.713 440.152Q445.838 446.231 442.101 452.397Q438.365 458.563 434.769 464.812Q431.173 471.06 427.719 477.389Q424.266 483.718 420.956 490.123Q417.647 496.528 414.483 503.006Q411.32 509.485 408.304 516.033Q405.288 522.582 402.421 529.197Q399.554 535.812 396.838 542.49Q394.121 549.169 391.557 555.907Q388.992 562.645 386.581 569.439Q384.17 576.234 381.913 583.081Q374.402 606.349 368.062 629.962C365.629 639.399 363.679 648.961 361.228 658.388C377.664 651.648 393.377 643.179 409.29 635.306L494.523 592.956L699.052 490.773L751.276 464.318C763.262 458.325 776.455 452.665 787.544 445.152C780.936 436.466 773.125 428.406 765.884 420.229C757.948 411.267 750.253 401.808 741.573 393.56C741.136 401.491 739.943 409.486 739.934 417.415C744.907 424.12 750.364 430.296 755.928 436.509C751.025 438.996 736.373 444.126 734.811 449.167C734.457 450.307 734.25 451.51 734.03 452.682C731.123 453.826 728.223 455.039 725.261 456.031C726.975 428.54 731.067 401.256 732.303 373.68C734.856 316.689 725.718 242.631 686.771 198.223C664.605 172.95 634.044 155.098 600.449 150.815C596.996 147.206 593.993 143.222 590.574 139.574C583.429 131.951 561.84 110.148 551.951 109.862C550.356 109.815 548.854 110.286 547.684 111.414C543.774 115.185 545.331 125.884 545.108 131.056C539.484 124.902 521.821 103.266 514.25 102.451C513.357 102.355 512.374 102.457 511.477 102.512ZM418.183 131.235C384.726 132.047 354.233 144.919 331.002 169.248C314.954 186.054 304.002 208.147 301.32 231.341Q300.154 231.434 298.99 231.556Q297.826 231.678 296.666 231.829Q295.506 231.979 294.35 232.158Q293.194 232.338 292.042 232.545Q290.891 232.753 289.745 232.989Q288.599 233.225 287.459 233.49Q286.319 233.754 285.186 234.046Q284.054 234.339 282.928 234.659Q281.803 234.979 280.686 235.327Q279.569 235.675 278.461 236.05Q277.352 236.426 276.254 236.828Q275.155 237.231 274.067 237.661Q272.979 238.091 271.902 238.547Q270.824 239.003 269.759 239.486Q268.693 239.969 267.64 240.478Q266.586 240.987 265.546 241.522Q264.505 242.057 263.478 242.618Q262.451 243.178 261.438 243.764Q260.425 244.349 259.427 244.96Q258.429 245.57 257.446 246.205Q256.463 246.84 255.497 247.499Q254.53 248.158 253.58 248.841Q252.63 249.523 251.697 250.229Q250.763 250.935 249.848 251.664Q248.933 252.393 248.036 253.144Q247.139 253.895 246.261 254.668Q245.382 255.441 244.523 256.236Q243.665 257.03 242.826 257.846Q241.987 258.661 241.168 259.497Q240.349 260.333 239.552 261.189Q238.754 262.045 237.978 262.92Q237.201 263.796 236.447 264.69C218.01 286.243 212.772 312.798 215.032 340.428L215.164 341.979C212.725 346.199 209.931 350.477 208.068 354.985C183.48 348.974 158.118 351.726 136.282 365.055C114.825 378.152 99.3143 398.67 93.4006 423.185C87.3395 448.312 91.0579 474.053 104.562 496.14C117.016 516.508 138.594 532.36 161.878 537.859C175.486 541.072 189.628 539.846 203.476 540.722C205.076 551.316 206.636 561.953 208.874 572.435C227.245 658.497 269.845 738.863 336.364 797.222C343.964 803.89 351.561 810.614 359.7 816.623C418.87 860.31 483.108 883.871 556.142 890.806C567.221 891.858 587.325 893.912 598.012 892.926L597.69 892.243L599.193 892.713C587.673 891.932 576.121 889.86 564.756 887.865C554.116 885.998 543.36 884.224 532.897 881.527Q525.195 879.539 517.575 877.26Q509.954 874.982 502.425 872.416Q494.896 869.851 487.469 867.002Q480.043 864.154 472.729 861.026Q465.416 857.898 458.226 854.496Q451.036 851.093 443.981 847.421Q436.925 843.749 430.013 839.812Q423.102 835.875 416.344 831.68C405.007 824.762 393.437 817.273 383.019 809.02C362.016 792.381 343.754 773.426 326.175 753.286C313.243 738.471 302.405 722.169 292.356 705.295C268.885 663.26 252.838 620.775 244.034 573.343C242.039 562.598 239.861 551.221 239.365 540.302L389.666 540.196C391.352 535.776 392.934 531.228 394.962 526.953C373.049 526.538 351.085 526.897 329.165 526.891L235.704 526.622L199.192 526.738C188.003 526.79 176.219 527.484 165.236 525.076Q163.826 524.753 162.428 524.378Q161.031 524.003 159.648 523.578Q158.265 523.152 156.898 522.677Q155.532 522.201 154.184 521.676Q152.835 521.151 151.507 520.578Q150.179 520.004 148.872 519.382Q147.566 518.76 146.283 518.091Q145 517.422 143.743 516.706Q142.485 515.991 141.255 515.23Q140.024 514.469 138.822 513.664Q137.62 512.859 136.448 512.01Q135.276 511.162 134.136 510.271Q132.995 509.38 131.888 508.448Q130.781 507.517 129.709 506.545Q128.637 505.574 127.601 504.564Q126.565 503.554 125.566 502.507C110.533 486.837 102.895 465.781 103.433 444.176Q103.462 443.153 103.515 442.13Q103.569 441.108 103.647 440.088Q103.726 439.067 103.83 438.049Q103.934 437.03 104.062 436.015Q104.191 434.999 104.345 433.987Q104.498 432.975 104.677 431.967Q104.855 430.959 105.058 429.956Q105.261 428.952 105.489 427.954Q105.716 426.956 105.968 425.964Q106.22 424.972 106.497 423.986Q106.773 423.001 107.074 422.022Q107.374 421.044 107.698 420.073Q108.023 419.102 108.371 418.139Q108.719 417.177 109.091 416.223Q109.462 415.269 109.857 414.325Q110.252 413.38 110.67 412.446Q111.088 411.511 111.529 410.588Q111.97 409.664 112.433 408.751Q112.896 407.838 113.382 406.937Q113.868 406.036 114.375 405.147Q114.883 404.258 115.412 403.382Q115.941 402.506 116.492 401.643Q117.043 400.78 117.614 399.93Q118.186 399.081 118.778 398.246Q119.37 397.411 119.983 396.591Q120.596 395.771 121.228 394.966Q121.861 394.162 122.513 393.373Q123.165 392.584 123.836 391.811Q124.508 391.038 125.198 390.282Q125.888 389.526 126.596 388.787Q127.305 388.048 128.031 387.327Q128.757 386.605 129.501 385.902C144.435 371.79 165.889 363.617 186.473 364.358C196.382 364.715 205.697 367.267 215.053 370.36C228.719 340.021 250.732 318.852 281.957 307.101C300.449 300.142 320.244 299.375 339.739 301.075C310.514 292.091 276.965 298.07 250.295 312.073C241.941 316.459 234.661 322.233 227.354 328.139C227.284 304.715 234.742 284.051 251.393 267.234C266.45 252.027 288.559 243.306 309.892 243.34C333.84 243.378 350.811 251.912 371.173 263.104C354.334 245.061 339.346 233.72 314.084 231.132C315.355 224.812 316.607 218.457 318.768 212.368C326.019 191.943 341.092 174.067 359.006 162.113C382.86 146.194 413.985 140.303 441.985 146.015C464.515 150.611 487.767 163.432 502.509 181.298C506.257 179.872 510.167 178.589 513.794 176.886C505.905 160.409 476.816 143.781 460.129 137.869C446.446 133.02 432.608 131.422 418.183 131.235ZM683.134 182.386C699.063 195.972 709.731 215.017 718.886 233.524C802.305 281.463 862.553 375.281 887.265 466.767Q891.145 481.235 893.928 495.953Q896.71 510.672 898.379 525.558C899.418 535.321 900.523 545.123 901.199 554.919C901.573 560.326 901.502 565.785 902.024 571.176C902.158 572.562 902.226 573.839 902.942 575.075C903.781 574.234 903.692 574.058 903.966 572.955Q904.565 568.409 905.052 563.85Q905.54 559.291 905.915 554.721Q906.291 550.152 906.554 545.574Q906.818 540.997 906.969 536.414Q907.12 531.831 907.159 527.246Q907.198 522.662 907.125 518.077Q907.051 513.493 906.865 508.911Q906.68 504.33 906.382 499.755Q906.084 495.179 905.674 490.612Q905.264 486.046 904.742 481.49Q904.22 476.935 903.587 472.394Q902.954 467.853 902.209 463.329Q901.465 458.804 900.61 454.3Q899.755 449.795 898.79 445.313Q897.825 440.83 896.75 436.373Q895.676 431.915 894.492 427.486Q893.309 423.056 892.017 418.657Q890.725 414.257 889.326 409.891Q887.927 405.525 886.422 401.194Q884.916 396.863 883.305 392.57Q881.693 388.278 879.977 384.026Q878.261 379.774 876.441 375.565Q874.622 371.357 872.699 367.194Q870.777 363.032 868.753 358.917Q866.73 354.803 864.606 350.739Q862.482 346.676 860.259 342.666Q858.036 338.656 855.716 334.701Q853.395 330.746 850.979 326.85Q848.562 322.953 846.051 319.117Q843.539 315.281 840.935 311.508Q838.33 307.734 835.634 304.026Q832.937 300.317 830.151 296.676C796.702 253.806 752.934 218.871 705.033 193.496C700.125 190.896 687.955 183.58 683.134 182.386ZM731.174 272.292C736.453 291.989 738.065 309.553 740.426 329.565C750.053 341.573 760.081 353.427 768.882 366.054C787.489 392.748 798.643 422.533 805.626 454.125C763.048 475.155 721.159 497.598 678.737 518.943L610.957 553.007C597.383 559.731 583.387 566.043 570.06 573.217C589.912 571.2 609.186 567.122 628.432 561.875C636.186 559.761 644.134 557.698 651.619 554.736C683.673 542.58 715.382 527.166 740.513 503.318C759.087 519.085 781.442 534.98 804.591 543.163C815.787 538.474 826.401 532.026 837.141 526.366C846.552 521.406 857.177 516.89 865.803 510.725C862.58 491.838 858.811 472.981 853.11 454.663C836.028 399.771 802.878 345.586 763.678 303.835C755.11 294.709 741.538 280.169 731.868 272.766C731.646 272.596 731.405 272.45 731.174 272.292ZM739.401 516.367C683.712 562.263 624.068 574.06 555.37 586.922C559.945 620.644 563.827 654.379 571.618 687.571C590.525 768.115 632.635 845.995 699.236 896.754Q709.525 904.566 720.405 911.533Q731.286 918.499 742.687 924.574C744.485 923.736 746.324 922.944 748.091 922.044Q756.382 917.315 764.378 912.102Q772.374 906.889 780.046 901.21Q787.718 895.531 795.039 889.407Q802.36 883.282 809.304 876.733C864.192 825.749 894.93 764.402 914.497 692.749C921.853 665.811 926.61 638.708 929.908 611.002C930.873 602.9 932.107 594.731 932.604 586.594C885.298 580.399 844.036 572.23 800.369 552.108C789.158 546.942 777.892 541.188 767.326 534.805C763.859 532.711 741.256 516.575 739.401 516.367ZM264.736 551.334C265.862 564.09 268.892 577.12 271.824 589.565Q275.343 604.838 280.137 619.759Q284.93 634.681 290.964 649.146C293.933 656.139 297.581 662.88 301.047 669.64C305.767 678.849 310.498 688.055 315.908 696.884C333.683 725.894 357.043 753.416 383.123 775.233C428.863 813.497 491.701 842.426 551.047 849.982C576.877 853.271 604.365 852.783 630.256 850.357C633.211 850.08 636.146 849.714 639.039 849.041Q625.35 832.034 613.865 813.468C608.5 804.663 603.78 795.116 597.857 786.697C562.371 785.055 525.777 774.544 492.639 762.134C470.033 753.37 447.424 744.996 425.211 735.251C447.017 725.085 468.495 714.117 490.194 703.716L535.056 682.028C542.973 678.213 551.128 674.654 558.902 670.573Q552.867 638.537 549.398 606.122C548.68 599.416 547.74 592.623 547.39 585.894L437.297 640.617Q404.28 656.573 371.446 672.904C361.223 677.925 350.803 682.674 340.697 687.909C316.977 647.605 301.792 598.023 297.406 551.548C286.519 551.461 275.623 551.279 264.736 551.334Z"/>
	<path fill="white" d="M520.581 182.871C520.297 168.453 519.25 154.132 515.907 140.062C513.625 130.46 509.364 120.113 508.654 110.314C508.418 107.053 509.351 104.932 511.477 102.512C512.374 102.457 513.357 102.355 514.25 102.451C521.821 103.266 539.484 124.902 545.108 131.056C545.331 125.884 543.774 115.185 547.684 111.414C548.854 110.286 550.356 109.815 551.951 109.862C561.84 110.148 583.429 131.951 590.574 139.574C593.993 143.222 596.996 147.206 600.449 150.815C634.044 155.098 664.605 172.95 686.771 198.223C725.718 242.631 734.856 316.689 732.303 373.68C731.067 401.256 726.975 428.54 725.261 456.031C728.223 455.039 731.123 453.826 734.03 452.682C734.25 451.51 734.457 450.307 734.811 449.167C736.373 444.126 751.025 438.996 755.928 436.509C750.364 430.296 744.907 424.12 739.934 417.415C739.943 409.486 741.136 401.491 741.573 393.56C750.253 401.808 757.948 411.267 765.884 420.229C773.125 428.406 780.936 436.466 787.544 445.152C776.455 452.665 763.262 458.325 751.276 464.318L699.052 490.773L494.523 592.956L409.29 635.306C393.377 643.179 377.664 651.648 361.228 658.388C363.679 648.961 365.629 639.399 368.062 629.962Q374.402 606.349 381.913 583.081Q384.17 576.234 386.581 569.439Q388.992 562.645 391.557 555.907Q394.121 549.169 396.838 542.49Q399.554 535.812 402.421 529.197Q405.288 522.582 408.304 516.033Q411.32 509.485 414.483 503.006Q417.647 496.528 420.956 490.123Q424.266 483.718 427.719 477.389Q431.173 471.06 434.769 464.812Q438.365 458.563 442.101 452.397Q445.838 446.231 449.713 440.152Q453.588 434.072 457.6 428.082Q461.612 422.092 465.759 416.194Q469.905 410.296 474.184 404.493Q478.463 398.691 482.872 392.987Q487.282 387.283 491.819 381.68C500.577 371.009 509.816 360.44 519.585 350.687C525.914 344.368 533.274 338.559 539.026 331.743L539.47 331.21C520.216 327.688 496.02 332.147 480.09 343.839C474.343 348.057 469.219 355.296 461.706 356.321C452.518 357.575 441.424 349.147 434.498 344.039C431.002 346.773 428.252 348.226 423.691 347.914C418.965 347.591 414.333 345.102 411.29 341.5C406.267 335.557 407.522 329.4 408.064 322.321C406.295 319.398 404.065 316.751 402.171 313.903C396.333 305.125 398.749 293.679 400.777 284.021C401.551 280.331 402.37 275.685 404.846 272.716C407.529 269.499 430.607 257.973 436.5 254.102C444.863 248.608 477.691 227.848 481.016 221.781C483.851 216.608 483.961 209.714 485.156 203.974C491.923 197.507 511.45 188.314 520.581 182.871ZM523.964 124.726C525.984 132.224 528.313 139.675 529.746 147.313C531.622 157.307 532.048 167.303 532.464 177.43L539.583 174.101C540.278 165.308 541.208 156.647 542.756 147.96C539.059 142.246 529.502 127.359 523.964 124.726ZM557.725 127.748C555.555 145.45 552.704 163.086 551.475 180.883C542.118 185.625 533.005 190.954 523.844 196.069C515.219 200.884 506.335 205.52 498.108 210.989C496.915 216.178 496.073 222.659 493.169 227.19C485.603 238.991 453.158 258.174 440.309 266.227Q433.707 270.436 426.701 273.93C422.879 275.839 418.731 277.526 415.166 279.871C412.73 287.121 408.587 298.869 412.213 306.24C414.438 310.764 418.463 313.816 421.44 317.76C420.693 322.597 418.777 331.673 421.453 336.028C421.863 336.695 422.333 336.76 423.009 337.075C425.211 336.737 426.632 335.272 427.934 333.55C430.138 330.635 431.633 327.185 433.697 324.163C439.098 316.256 448.502 312.939 457.565 311.474C464.182 310.403 470.966 310.706 476.663 314.677C477.833 315.493 478.514 316.21 479.173 317.465C479.056 318.657 479.097 318.9 478.148 319.741C471.645 325.502 450.636 318.75 441.971 333.096C441.961 334.386 442.104 334.917 443.002 335.89C446.332 339.497 454.484 343.357 459.173 344.781C468.469 341.227 473.671 330.725 480.172 323.589C485.188 318.083 490.786 313.385 497.256 309.672C506.231 304.521 517.156 300.891 527.33 299.238C548.476 295.803 575.335 298.653 585.695 274.997C591.453 261.848 589.509 245.547 584.327 232.534Q582.962 229.155 581.504 225.815C598.621 243.368 612.822 262.535 612.545 288.243C612.422 299.653 609.471 311.123 601.043 319.261C593.219 326.816 582.572 331.064 572.02 333.006C567.79 333.785 563.371 334.189 559.357 335.783C554.691 337.636 548.924 340.837 544.909 343.847C540.631 347.053 536.872 351.207 533.093 354.978C524.557 363.495 516.379 371.878 508.861 381.32Q528.845 373.133 548.996 365.368C558.415 361.749 567.847 357.939 577.531 355.084Q548.84 371.679 519.836 387.721C512.822 391.583 497.164 398.534 491.933 403.109C486.499 407.863 470.178 431.308 466.13 438.367C490.911 427.283 515.871 416.999 541.054 406.866C553.636 401.803 566.488 395.966 579.378 391.868C536.595 417.183 492.58 440.602 449.101 464.702C443.413 475.513 437.402 486.247 432.194 497.295L533.562 454.173Q542.149 450.56 550.656 446.76C555.811 444.418 562.177 440.59 567.718 439.596L567.929 439.921L567.992 439.748L567.246 440.272C563.764 442.675 559.683 444.561 555.979 446.615L537.032 457.324L452.205 504.694C444.249 508.887 426.889 516.739 421.103 522.146C415.289 527.58 407.341 550.334 404.625 558.542C426.903 548.959 448.84 538.347 470.866 528.188C487.564 520.486 504.471 513.239 521.239 505.693C529.828 501.828 538.472 498.042 547.006 494.06C552.632 491.435 558.465 488.088 564.346 486.187L564.75 486.649L564.799 486.115L566.02 486.364C565.47 486.921 565.091 487.055 564.386 487.393C556.493 491.182 549.145 496.033 541.599 500.456L505.048 521.605Q450.799 552.659 395.943 582.628C391.684 595.771 387.303 608.867 384.056 622.306C391.543 619.198 398.695 615.297 406.035 611.857Q440.223 595.689 473.903 578.489L601.384 515.765C607.716 505.071 611.863 492.674 616.276 481.092C641.046 416.083 653.455 336.422 635.935 268.152C632.316 254.053 627.004 240.919 621.046 227.669C642.326 250.351 660.128 279.162 670.502 308.509C683.881 346.36 687.995 398.057 686.69 438.102C686.254 451.472 685.532 464.978 684.102 478.284C686.699 477.081 689.321 475.92 691.842 474.562C698.265 418.841 697.453 350.255 682.719 296.037C679.718 284.993 675.607 274.182 671.259 263.608C665.12 248.678 657.93 234.546 647.867 221.812C640.481 212.467 631.398 203.226 621.882 196.067C616.06 191.689 609.827 187.86 604.006 183.493C602.742 179.898 601.492 176.348 599.612 173.02C591.859 159.299 571.644 134.681 557.725 127.748ZM608.462 164.789C610.094 167.979 611.673 171.317 614.022 174.051C617.983 178.663 624.009 181.948 628.863 185.571Q634.653 189.832 639.914 194.732Q645.174 199.631 649.835 205.105C652.087 202.999 654.124 200.797 656.155 198.48C658.255 196.105 660.363 193.76 662.579 191.493C648.4 181.485 638.119 175.537 621.856 169.38C617.497 167.73 612.984 165.9 608.462 164.789ZM670.446 198.849Q663.706 206.037 657.334 213.553C662.293 220.428 666.883 227.548 671.803 234.437L677.7 231.995C682.282 229.807 686.874 227.668 691.262 225.104C687.565 218.146 676.931 203.201 670.446 198.849ZM696.377 236.076C689.625 237.788 683.159 241.247 676.912 244.284C678.757 248.841 684.409 264.42 687.04 267.356L688.115 267.362L707.56 263.647C706.058 258.815 700.009 238.159 696.377 236.076ZM709.268 273.542C702.945 275.24 696.652 276.942 690.186 278.027C692.344 285.107 694.12 292.713 696.856 299.566C703 298.407 709.136 297.193 715.325 296.295C714.335 291 712.831 277.892 710.115 273.647L709.268 273.542ZM716.499 307.158Q707.801 308.814 699.07 310.286C700.322 318.374 701.684 326.57 703.759 334.489Q711.912 333.759 720.084 333.298C719.821 329.686 718.881 309.153 716.829 307.201L716.499 307.158ZM704.907 345.681C705.395 352.97 706.388 360.213 706.909 367.5C711.391 367.679 715.899 367.969 720.384 367.941C720.479 360.446 720.853 352.973 721.013 345.485C715.654 345.511 710.259 345.405 704.907 345.681ZM708.019 379.453C707.988 385.924 707.882 392.411 708.512 398.86C711.774 398.964 715.498 399.427 718.698 398.878C719.04 392.599 719.396 386.33 719.472 380.041Q713.744 379.782 708.019 379.453ZM708.512 410.278Q707.866 417.528 707.58 424.801C710.676 425.027 713.767 425.23 716.845 425.641C717.102 420.784 717.457 415.913 717.584 411.052L708.512 410.278ZM706.713 437.811C706.461 441.518 706.311 445.178 706.335 448.894C709.145 449.143 712.004 449.498 714.822 449.579L715.351 438.834C712.477 438.488 709.595 438.079 706.713 437.811ZM706.705 459.334Q705.845 464.312 705.167 469.317L709.748 465.649C711.099 464.717 712.076 464.099 712.821 462.569C712.738 461.684 712.912 461.465 712.193 460.819C710.764 459.534 708.535 459.525 706.705 459.334Z"/>
	<path fill="#173051" d="M532.464 177.43C532.048 167.303 531.622 157.307 529.746 147.313C528.313 139.675 525.984 132.224 523.964 124.726C529.502 127.359 539.059 142.246 542.756 147.96C541.208 156.647 540.278 165.308 539.583 174.101L532.464 177.43Z"/>
	<path fill="#173051" d="M551.475 180.883C552.704 163.086 555.555 145.45 557.725 127.748C571.644 134.681 591.859 159.299 599.612 173.02C601.492 176.348 602.742 179.898 604.006 183.493C609.827 187.86 616.06 191.689 621.882 196.067C631.398 203.226 640.481 212.467 647.867 221.812C657.93 234.546 665.12 248.678 671.259 263.608C675.607 274.182 679.718 284.993 682.719 296.037C697.453 350.255 698.265 418.841 691.842 474.562C689.321 475.92 686.699 477.081 684.102 478.284C685.532 464.978 686.254 451.472 686.69 438.102C687.995 398.057 683.881 346.36 670.502 308.509C660.128 279.162 642.326 250.351 621.046 227.669C627.004 240.919 632.316 254.053 635.935 268.152C653.455 336.422 641.046 416.083 616.276 481.092C611.863 492.674 607.716 505.071 601.384 515.765L473.903 578.489Q440.223 595.689 406.035 611.857C398.695 615.297 391.543 619.198 384.056 622.306C387.303 608.867 391.684 595.771 395.943 582.628Q450.799 552.659 505.048 521.605L541.599 500.456C549.145 496.033 556.493 491.182 564.386 487.393C565.091 487.055 565.47 486.921 566.02 486.364L564.799 486.115L564.75 486.649L564.346 486.187C558.465 488.088 552.632 491.435 547.006 494.06C538.472 498.042 529.828 501.828 521.239 505.693C504.471 513.239 487.564 520.486 470.866 528.188C448.84 538.347 426.903 548.959 404.625 558.542C407.341 550.334 415.289 527.58 421.103 522.146C426.889 516.739 444.249 508.887 452.205 504.694L537.032 457.324L555.979 446.615C559.683 444.561 563.764 442.675 567.246 440.272L567.992 439.748L567.929 439.921L567.718 439.596C562.177 440.59 555.811 444.418 550.656 446.76Q542.149 450.56 533.562 454.173L432.194 497.295C437.402 486.247 443.413 475.513 449.101 464.702C492.58 440.602 536.595 417.183 579.378 391.868C566.488 395.966 553.636 401.803 541.054 406.866C515.871 416.999 490.911 427.283 466.13 438.367C470.178 431.308 486.499 407.863 491.933 403.109C497.164 398.534 512.822 391.583 519.836 387.721Q548.84 371.679 577.531 355.084C567.847 357.939 558.415 361.749 548.996 365.368Q528.845 373.133 508.861 381.32C516.379 371.878 524.557 363.495 533.093 354.978C536.872 351.207 540.631 347.053 544.909 343.847C548.924 340.837 554.691 337.636 559.357 335.783C563.371 334.189 567.79 333.785 572.02 333.006C582.572 331.064 593.219 326.816 601.043 319.261C609.471 311.123 612.422 299.653 612.545 288.243C612.822 262.535 598.621 243.368 581.504 225.815Q582.962 229.155 584.327 232.534C589.509 245.547 591.453 261.848 585.695 274.997C575.335 298.653 548.476 295.803 527.33 299.238C517.156 300.891 506.231 304.521 497.256 309.672C490.786 313.385 485.188 318.083 480.172 323.589C473.671 330.725 468.469 341.227 459.173 344.781C454.484 343.357 446.332 339.497 443.002 335.89C442.104 334.917 441.961 334.386 441.971 333.096C450.636 318.75 471.645 325.502 478.148 319.741C479.097 318.9 479.056 318.657 479.173 317.465C478.514 316.21 477.833 315.493 476.663 314.677C470.966 310.706 464.182 310.403 457.565 311.474C448.502 312.939 439.098 316.256 433.697 324.163C431.633 327.185 430.138 330.635 427.934 333.55C426.632 335.272 425.211 336.737 423.009 337.075C422.333 336.76 421.863 336.695 421.453 336.028C418.777 331.673 420.693 322.597 421.44 317.76C418.463 313.816 414.438 310.764 412.213 306.24C408.587 298.869 412.73 287.121 415.166 279.871C418.731 277.526 422.879 275.839 426.701 273.93Q433.707 270.436 440.309 266.227C453.158 258.174 485.603 238.991 493.169 227.19C496.073 222.659 496.915 216.178 498.108 210.989C506.335 205.52 515.219 200.884 523.844 196.069C533.005 190.954 542.118 185.625 551.475 180.883ZM564.907 138.367C566.77 145.518 568.109 152.713 569.306 160.003C575.569 163.545 580.811 167.351 586.102 172.216C588.716 174.619 591.317 177.511 594.177 179.587C589.715 167.909 574.943 146.479 564.907 138.367ZM534.473 209.694C523.344 210.978 514.282 214.248 507.124 223.287C501.311 230.63 499.99 239.484 496.182 247.768C496.86 248.058 497.051 248.369 497.779 248.008C500.972 246.426 503 241.559 504.222 238.366C508.45 228.817 513.445 221.07 523.61 217.117C529.112 214.977 535.033 214.681 540.812 215.661C542.905 216.016 545.317 216.735 547.417 216.684C548.493 216.658 549.14 216.173 549.937 215.517L550.227 214.599C549.059 212.431 544.229 210.944 541.871 210.292C539.625 209.67 536.784 209.469 534.473 209.694ZM548.306 220.631C544.866 221.334 541.523 221.94 538.003 221.973C528.555 222.063 519.966 219.942 513.827 229.26C512.471 231.318 507.089 239.436 507.404 241.399L508.107 241.226L508.8 241.044C521.576 237.814 538.689 243.355 547.239 229.54C548.733 227.125 549.604 224.287 549.908 221.477L549.455 220.642L548.306 220.631ZM442.281 278.694C436.049 279.363 429.324 279.863 425.063 285.145C423.221 287.428 422.045 290.564 422.421 293.521Q422.476 293.955 422.576 294.381Q422.676 294.807 422.819 295.22Q422.962 295.633 423.148 296.029Q423.334 296.425 423.559 296.8Q423.785 297.174 424.048 297.523Q424.312 297.872 424.61 298.192Q424.908 298.512 425.238 298.799Q425.568 299.087 425.926 299.338C427.69 300.58 429.458 300.554 431.544 300.554C437.195 298.462 447.132 290.97 449.727 285.427C450.266 284.275 450.588 282.887 450.119 281.652C449.62 280.341 448.074 279.115 446.777 278.707C445.416 278.279 443.661 278.46 442.281 278.694Z"/>
	<path fill="white" d="M301.32 231.341C304.002 208.147 314.954 186.054 331.002 169.248C354.233 144.919 384.726 132.047 418.183 131.235C432.608 131.422 446.446 133.02 460.129 137.869C476.816 143.781 505.905 160.409 513.794 176.886C510.167 178.589 506.257 179.872 502.509 181.298C487.767 163.432 464.515 150.611 441.985 146.015C413.985 140.303 382.86 146.194 359.006 162.113C341.092 174.067 326.019 191.943 318.768 212.368C316.607 218.457 315.355 224.812 314.084 231.132C339.346 233.72 354.334 245.061 371.173 263.104C350.811 251.912 333.84 243.378 309.892 243.34C288.559 243.306 266.45 252.027 251.393 267.234C234.742 284.051 227.284 304.715 227.354 328.139C234.661 322.233 241.941 316.459 250.295 312.073C276.965 298.07 310.514 292.091 339.739 301.075C320.244 299.375 300.449 300.142 281.957 307.101C250.732 318.852 228.719 340.021 215.053 370.36C205.697 367.267 196.382 364.715 186.473 364.358C165.889 363.617 144.435 371.79 129.501 385.902Q128.757 386.605 128.031 387.327Q127.305 388.048 126.596 388.787Q125.888 389.526 125.198 390.282Q124.508 391.038 123.836 391.811Q123.165 392.584 122.513 393.373Q121.861 394.162 121.228 394.966Q120.596 395.771 119.983 396.591Q119.37 397.411 118.778 398.246Q118.186 399.081 117.614 399.93Q117.043 400.78 116.492 401.643Q115.941 402.506 115.412 403.382Q114.883 404.258 114.375 405.147Q113.868 406.036 113.382 406.937Q112.896 407.838 112.433 408.751Q111.97 409.664 111.529 410.588Q111.088 411.511 110.67 412.446Q110.252 413.38 109.857 414.325Q109.462 415.269 109.091 416.223Q108.719 417.177 108.371 418.139Q108.023 419.102 107.698 420.073Q107.374 421.044 107.074 422.022Q106.773 423.001 106.497 423.987Q106.22 424.972 105.968 425.964Q105.716 426.956 105.489 427.954Q105.261 428.952 105.058 429.956Q104.855 430.959 104.677 431.967Q104.498 432.975 104.345 433.987Q104.191 434.999 104.062 436.015Q103.934 437.03 103.83 438.049Q103.726 439.067 103.647 440.088Q103.569 441.108 103.515 442.13Q103.462 443.153 103.433 444.176C102.895 465.781 110.533 486.837 125.566 502.507Q126.565 503.554 127.601 504.564Q128.637 505.574 129.709 506.545Q130.781 507.517 131.888 508.448Q132.995 509.38 134.136 510.271Q135.276 511.161 136.448 512.01Q137.62 512.859 138.822 513.664Q140.024 514.469 141.254 515.23Q142.485 515.991 143.743 516.706Q145 517.422 146.283 518.091Q147.566 518.76 148.872 519.382Q150.179 520.004 151.507 520.578Q152.835 521.151 154.184 521.676Q155.532 522.201 156.898 522.677Q158.265 523.152 159.648 523.578Q161.031 524.003 162.428 524.378Q163.826 524.753 165.236 525.076C176.219 527.484 188.003 526.79 199.192 526.738L235.704 526.622L329.165 526.891C351.085 526.897 373.049 526.538 394.962 526.953C392.934 531.228 391.352 535.776 389.666 540.196L239.365 540.302C239.861 551.221 242.039 562.598 244.034 573.343C252.838 620.775 268.885 663.26 292.356 705.295C302.405 722.169 313.243 738.471 326.175 753.286C343.754 773.426 362.016 792.381 383.019 809.02C393.437 817.273 405.007 824.762 416.344 831.68Q423.102 835.875 430.013 839.812Q436.925 843.749 443.981 847.421Q451.036 851.093 458.226 854.496Q465.416 857.898 472.729 861.026Q480.043 864.154 487.469 867.002Q494.896 869.851 502.425 872.416Q509.954 874.982 517.575 877.26Q525.195 879.539 532.897 881.527C543.36 884.224 554.116 885.998 564.756 887.865C576.121 889.86 587.673 891.932 599.193 892.713L597.69 892.243L598.012 892.926C587.325 893.912 567.221 891.858 556.142 890.806C483.108 883.871 418.87 860.31 359.7 816.623C351.561 810.614 343.964 803.89 336.364 797.222C269.845 738.863 227.245 658.497 208.874 572.435C206.636 561.953 205.076 551.316 203.476 540.722C189.628 539.846 175.486 541.072 161.878 537.859C138.594 532.36 117.016 516.508 104.562 496.14C91.0579 474.053 87.3395 448.312 93.4006 423.185C99.3143 398.67 114.825 378.152 136.282 365.055C158.118 351.726 183.48 348.974 208.068 354.985C209.931 350.477 212.725 346.199 215.164 341.979L215.032 340.428C212.772 312.798 218.01 286.243 236.447 264.69Q237.201 263.796 237.978 262.92Q238.754 262.045 239.552 261.189Q240.349 260.333 241.168 259.497Q241.987 258.661 242.826 257.846Q243.665 257.03 244.523 256.236Q245.382 255.441 246.261 254.668Q247.139 253.895 248.036 253.144Q248.933 252.393 249.848 251.664Q250.763 250.935 251.697 250.229Q252.63 249.523 253.58 248.841Q254.53 248.158 255.497 247.499Q256.463 246.84 257.446 246.205Q258.429 245.57 259.427 244.96Q260.425 244.349 261.438 243.764Q262.451 243.178 263.478 242.618Q264.505 242.057 265.546 241.522Q266.586 240.987 267.639 240.478Q268.693 239.969 269.759 239.486Q270.824 239.003 271.902 238.547Q272.979 238.091 274.067 237.661Q275.155 237.231 276.254 236.828Q277.352 236.426 278.461 236.05Q279.569 235.675 280.686 235.327Q281.803 234.979 282.928 234.659Q284.054 234.339 285.186 234.046Q286.319 233.754 287.459 233.49Q288.599 233.225 289.745 232.989Q290.891 232.753 292.042 232.545Q293.194 232.338 294.35 232.158Q295.506 231.979 296.666 231.829Q297.826 231.678 298.99 231.556Q300.154 231.434 301.32 231.341Z"/>
	<path fill="white" d="M569.306 160.003C568.109 152.713 566.77 145.518 564.907 138.367C574.943 146.479 589.715 167.909 594.177 179.587C591.317 177.511 588.716 174.619 586.102 172.216C580.811 167.351 575.569 163.545 569.306 160.003Z"/>
	<path fill="#173051" d="M649.835 205.105Q645.174 199.631 639.914 194.732Q634.653 189.832 628.863 185.571C624.009 181.948 617.983 178.663 614.022 174.051C611.673 171.317 610.094 167.979 608.462 164.789C612.984 165.9 617.497 167.73 621.856 169.38C638.119 175.537 648.4 181.485 662.579 191.493C660.363 193.76 658.255 196.105 656.155 198.48C654.124 200.797 652.087 202.999 649.835 205.105Z"/>
	<path fill="white" d="M718.886 233.524C709.731 215.017 699.063 195.972 683.134 182.386C687.955 183.58 700.125 190.896 705.033 193.496C752.934 218.871 796.702 253.806 830.151 296.676Q832.937 300.317 835.634 304.026Q838.33 307.734 840.935 311.508Q843.539 315.281 846.051 319.117Q848.562 322.953 850.979 326.85Q853.395 330.746 855.716 334.701Q858.036 338.656 860.259 342.666Q862.482 346.676 864.606 350.739Q866.73 354.803 868.753 358.917Q870.777 363.032 872.699 367.194Q874.622 371.357 876.441 375.565Q878.261 379.774 879.977 384.026Q881.693 388.278 883.305 392.57Q884.916 396.863 886.422 401.194Q887.927 405.525 889.326 409.891Q890.725 414.257 892.017 418.657Q893.309 423.056 894.492 427.486Q895.676 431.915 896.751 436.373Q897.825 440.83 898.79 445.313Q899.755 449.795 900.61 454.3Q901.465 458.804 902.209 463.329Q902.954 467.853 903.587 472.394Q904.22 476.935 904.742 481.49Q905.264 486.046 905.674 490.612Q906.084 495.179 906.382 499.755Q906.68 504.33 906.865 508.911Q907.051 513.493 907.125 518.077Q907.198 522.661 907.159 527.246Q907.12 531.831 906.969 536.414Q906.818 540.997 906.554 545.574Q906.291 550.152 905.915 554.721Q905.54 559.291 905.052 563.85Q904.565 568.409 903.966 572.955C903.692 574.058 903.781 574.234 902.942 575.075C902.226 573.839 902.158 572.562 902.024 571.176C901.502 565.785 901.573 560.326 901.199 554.919C900.523 545.123 899.418 535.321 898.379 525.558Q896.71 510.672 893.927 495.953Q891.145 481.235 887.265 466.767C862.553 375.281 802.305 281.463 718.886 233.524Z"/>
	<path fill="#173051" d="M657.334 213.553Q663.706 206.037 670.446 198.849C676.931 203.201 687.565 218.146 691.262 225.104C686.874 227.668 682.282 229.807 677.7 231.995L671.803 234.437C666.883 227.548 662.293 220.428 657.334 213.553Z"/>
	<path fill="white" d="M504.222 238.366C503 241.559 500.972 246.426 497.779 248.008C497.051 248.369 496.86 248.058 496.182 247.768C499.99 239.484 501.311 230.63 507.124 223.287C514.282 214.248 523.344 210.978 534.473 209.694C536.784 209.469 539.625 209.67 541.871 210.292C544.229 210.944 549.059 212.431 550.227 214.599L549.937 215.517C549.14 216.173 548.493 216.658 547.417 216.684C545.317 216.735 542.905 216.016 540.812 215.661C535.033 214.681 529.112 214.977 523.61 217.117C513.445 221.07 508.45 228.817 504.222 238.366Z"/>
	<path fill="white" d="M508.107 241.226L507.404 241.399C507.089 239.436 512.471 231.318 513.827 229.26C519.966 219.942 528.555 222.063 538.003 221.973C541.523 221.94 544.866 221.334 548.306 220.631L549.455 220.642L549.908 221.477C549.604 224.287 548.733 227.125 547.239 229.54C538.689 243.355 521.576 237.814 508.8 241.044L508.107 241.226Z"/>
	<path fill="#173051" d="M676.912 244.284C683.159 241.247 689.625 237.788 696.377 236.076C700.009 238.159 706.058 258.815 707.56 263.647L688.115 267.362L687.04 267.356C684.409 264.42 678.757 248.841 676.912 244.284Z"/>
	<path fill="#5BB5D1" d="M740.426 329.565C738.065 309.553 736.453 291.989 731.174 272.292C731.405 272.45 731.646 272.596 731.868 272.766C741.538 280.169 755.11 294.709 763.678 303.835C802.878 345.586 836.028 399.771 853.11 454.663C858.811 472.981 862.58 491.838 865.803 510.725C857.177 516.89 846.552 521.406 837.141 526.366C826.401 532.026 815.787 538.474 804.591 543.163C781.442 534.98 759.087 519.085 740.513 503.318C715.382 527.166 683.673 542.58 651.619 554.736C644.134 557.698 636.186 559.761 628.432 561.875C609.186 567.122 589.912 571.2 570.06 573.217C583.387 566.043 597.383 559.731 610.957 553.007L678.737 518.943C721.159 497.598 763.048 475.155 805.626 454.125C798.643 422.533 787.489 392.748 768.882 366.054C760.081 353.427 750.053 341.573 740.426 329.565Z"/>
	<path fill="#173051" d="M690.186 278.027C696.652 276.942 702.945 275.24 709.268 273.542L710.115 273.647C712.831 277.892 714.335 291 715.325 296.295C709.136 297.193 703 298.407 696.856 299.566C694.12 292.713 692.344 285.107 690.186 278.027Z"/>
	<path fill="white" d="M431.544 300.554C429.458 300.554 427.69 300.58 425.926 299.338Q425.568 299.087 425.238 298.799Q424.908 298.512 424.61 298.192Q424.312 297.872 424.048 297.523Q423.785 297.174 423.559 296.8Q423.334 296.425 423.148 296.029Q422.962 295.633 422.819 295.22Q422.676 294.807 422.576 294.381Q422.476 293.955 422.421 293.521C422.045 290.564 423.221 287.428 425.063 285.145C429.324 279.863 436.049 279.363 442.281 278.694C443.661 278.46 445.416 278.279 446.777 278.707C448.074 279.115 449.62 280.341 450.119 281.652C450.588 282.887 450.266 284.275 449.727 285.427C447.132 290.97 437.195 298.462 431.544 300.554Z"/>
	<path fill="#173051" d="M699.07 310.286Q707.801 308.814 716.499 307.158L716.829 307.201C718.881 309.153 719.821 329.686 720.084 333.298Q711.912 333.759 703.759 334.489C701.684 326.57 700.322 318.374 699.07 310.286Z"/>
	<path fill="#173051" d="M706.909 367.5C706.388 360.213 705.395 352.97 704.907 345.681C710.259 345.405 715.654 345.511 721.013 345.485C720.853 352.973 720.479 360.446 720.384 367.941C715.899 367.969 711.391 367.679 706.909 367.5Z"/>
	<path fill="#173051" d="M708.512 398.86C707.882 392.411 707.988 385.924 708.019 379.453Q713.744 379.782 719.472 380.041C719.396 386.33 719.04 392.599 718.698 398.878C715.498 399.427 711.774 398.964 708.512 398.86Z"/>
	<path fill="#173051" d="M707.58 424.801Q707.866 417.528 708.512 410.278L717.584 411.052C717.457 415.913 717.102 420.784 716.845 425.641C713.767 425.23 710.676 425.027 707.58 424.801Z"/>
	<path fill="#173051" d="M706.335 448.894C706.311 445.178 706.461 441.518 706.713 437.811C709.595 438.079 712.477 438.488 715.351 438.834L714.822 449.579C712.004 449.498 709.145 449.143 706.335 448.894Z"/>
	<path fill="#173051" d="M705.167 469.317Q705.845 464.312 706.705 459.334C708.535 459.525 710.764 459.534 712.193 460.819C712.912 461.465 712.738 461.684 712.821 462.569C712.076 464.099 711.099 464.717 709.748 465.649L705.167 469.317Z"/>
	<path fill="white" d="M555.37 586.922C624.068 574.06 683.712 562.263 739.401 516.367C741.256 516.575 763.859 532.711 767.326 534.805C777.892 541.188 789.158 546.942 800.369 552.108C844.036 572.23 885.298 580.399 932.604 586.594C932.107 594.731 930.873 602.9 929.908 611.002C926.61 638.708 921.853 665.811 914.497 692.749C894.93 764.402 864.192 825.749 809.304 876.733Q802.36 883.282 795.039 889.407Q787.718 895.531 780.046 901.21Q772.374 906.889 764.378 912.102Q756.382 917.315 748.091 922.044C746.324 922.944 744.485 923.736 742.687 924.574Q731.285 918.499 720.405 911.533Q709.525 904.566 699.236 896.754C632.635 845.995 590.525 768.115 571.618 687.571C563.827 654.379 559.945 620.644 555.37 586.922ZM739.574 529.36C696.372 565.555 622.036 588.02 566.842 594.675C573.684 660.926 586.534 721.796 617.289 781.387C624.028 794.445 631.14 807.395 639.576 819.451C645.824 828.38 652.866 836.835 659.971 845.087C670.742 857.596 682.105 869.634 694.926 880.07C709.628 892.038 725.987 904.374 743.104 912.67L747.223 910.671C814.068 870.874 860.868 811.615 888.498 739.203C896.245 718.9 902.311 697.711 907.645 676.657C914.348 650.203 918.043 622.731 921.323 595.682C904.778 592.903 888.213 590.622 871.805 587.042Q859.897 584.354 848.173 580.955Q836.448 577.555 824.95 573.455Q813.452 569.355 802.221 564.57Q790.991 559.786 780.069 554.333Q767.353 547.981 755.517 540.109C751.486 537.422 743.519 530.96 739.574 529.36Z"/>
	<path fill="#173051" d="M566.842 594.675C622.036 588.02 696.372 565.555 739.574 529.36C743.519 530.96 751.486 537.422 755.517 540.109Q767.353 547.981 780.069 554.333Q790.991 559.786 802.221 564.57Q813.452 569.355 824.95 573.455Q836.448 577.555 848.173 580.955Q859.897 584.354 871.805 587.042C888.213 590.622 904.778 592.903 921.323 595.682C918.043 622.731 914.348 650.203 907.645 676.657C902.311 697.711 896.245 718.9 888.498 739.203C860.868 811.615 814.068 870.874 747.223 910.671L743.104 912.67C725.987 904.374 709.628 892.038 694.926 880.07C682.105 869.634 670.742 857.596 659.971 845.087C652.866 836.835 645.824 828.38 639.576 819.451C631.14 807.395 624.028 794.445 617.289 781.387C586.534 721.796 573.684 660.926 566.842 594.675ZM739.593 539.5C699.588 569.319 651.443 585.497 603.198 596.063C593.97 598.084 584.622 599.363 575.393 601.287C585.867 707.824 618.964 806.575 704.065 876.553Q713.218 884.087 723.067 890.685Q732.916 897.283 743.366 902.881L747.605 900.599C761.701 891.724 775.579 882.103 788.256 871.274C850.644 817.976 884.201 744.292 902.064 665.595Q906.362 646.991 909.306 628.125C910.613 619.495 911.328 610.554 913.102 602.025C851.392 594.346 791.254 574.616 739.593 539.5Z"/>
	<path fill="white" d="M575.393 601.287C584.622 599.363 593.97 598.084 603.198 596.063C651.443 585.497 699.588 569.319 739.593 539.5C791.254 574.616 851.392 594.346 913.102 602.025C911.328 610.554 910.613 619.495 909.306 628.125Q906.362 646.991 902.064 665.595C884.201 744.292 850.644 817.976 788.256 871.274C775.579 882.103 761.701 891.724 747.605 900.599L743.366 902.881Q732.916 897.283 723.067 890.685Q713.218 884.087 704.065 876.553C618.964 806.575 585.867 707.824 575.393 601.287ZM719.003 581.686C718.807 588.008 718.885 594.329 718.932 600.653C699.33 606.181 683.051 616.003 672.893 634.247C662.856 652.273 660.64 678.686 666.365 698.5C670.927 714.292 682.343 729.32 696.801 737.262C685.116 736.568 673.149 737.002 661.438 737.011C661.182 762.307 663.838 794.028 682.394 813.052C691.936 822.835 704.635 829.47 717.792 832.802Q717.443 843.542 717.597 854.287C734.407 854.694 751.269 854.274 768.093 854.483L769.07 854.106C770.341 848.8 769.26 838.853 769.125 833.086C788.152 828.592 803.012 820.234 813.554 803.249C824.978 784.841 826.87 759.978 821.84 739.264C816.491 717.241 803.999 700.78 785.434 688.127Q802.722 688.579 820.015 688.441C819.792 662.688 820.368 641.095 800.509 621.495C790.853 611.964 779.736 606.865 767.141 602.324L766.963 581.82C751.014 581.462 734.956 581.476 719.003 581.686Z"/>
	<path fill="#5BB5D1" d="M639.039 849.041C636.146 849.714 633.211 850.08 630.256 850.357C604.365 852.783 576.877 853.271 551.047 849.982C491.701 842.426 428.863 813.497 383.123 775.233C357.043 753.416 333.683 725.894 315.908 696.884C310.498 688.055 305.767 678.849 301.047 669.64C297.581 662.88 293.933 656.139 290.964 649.146Q284.93 634.681 280.137 619.759Q275.343 604.838 271.824 589.565C268.892 577.12 265.862 564.09 264.736 551.334C275.623 551.279 286.519 551.461 297.406 551.548C301.792 598.023 316.977 647.605 340.697 687.909C350.803 682.674 361.223 677.925 371.446 672.904Q404.28 656.573 437.297 640.617L547.39 585.894C547.74 592.623 548.68 599.416 549.398 606.122Q552.867 638.537 558.902 670.573C551.128 674.654 542.973 678.213 535.056 682.028L490.194 703.716C468.495 714.117 447.017 725.085 425.211 735.251C447.424 744.996 470.033 753.37 492.639 762.134C525.777 774.544 562.371 785.055 597.857 786.697C603.78 795.116 608.5 804.663 613.865 813.468Q625.35 832.034 639.039 849.041Z"/>
	<path fill="#173051" d="M718.932 600.653C718.885 594.329 718.807 588.008 719.003 581.686C734.956 581.476 751.014 581.462 766.963 581.82L767.141 602.324C779.736 606.865 790.853 611.964 800.509 621.495C820.368 641.095 819.792 662.688 820.015 688.441Q802.722 688.578 785.434 688.127C803.999 700.78 816.491 717.241 821.84 739.264C826.87 759.978 824.978 784.841 813.554 803.249C803.012 820.234 788.152 828.592 769.125 833.086C769.26 838.853 770.341 848.8 769.07 854.106L768.093 854.483C751.269 854.274 734.407 854.694 717.597 854.287Q717.443 843.542 717.792 832.802C704.635 829.47 691.936 822.835 682.394 813.052C663.838 794.028 661.182 762.307 661.438 737.011C673.149 737.002 685.116 736.568 696.801 737.262C682.343 729.32 670.927 714.292 666.365 698.5C660.64 678.686 662.856 652.273 672.893 634.247C683.051 616.003 699.33 606.181 718.932 600.653ZM726.93 590.681L726.759 608.903C710.298 610.606 695.563 617.94 685.076 630.96C672.224 646.916 670.302 666.663 672.576 686.365Q672.757 687.845 673.011 689.314Q673.265 690.783 673.59 692.238Q673.915 693.692 674.312 695.13Q674.708 696.567 675.174 697.983Q675.64 699.399 676.174 700.79Q676.709 702.182 677.312 703.546Q677.914 704.909 678.582 706.242Q679.25 707.574 679.983 708.873Q680.716 710.171 681.511 711.432Q682.307 712.693 683.163 713.913Q684.019 715.133 684.934 716.31Q685.849 717.488 686.82 718.618Q687.791 719.749 688.817 720.831Q689.842 721.913 690.92 722.943Q691.997 723.974 693.124 724.95Q694.25 725.927 695.423 726.847C705.215 734.502 717.385 739.623 728.531 744.993C708.847 744.723 689.239 744.612 669.555 745.093C671.314 769.06 673.528 795.27 693.145 812.02C702.95 820.391 713.839 824.562 726.472 826.404C726.273 832.931 725.943 839.5 725.978 846.029Q743.298 845.866 760.616 846.222L760.441 826.028C767.843 824.769 775.115 823.417 781.956 820.164C797.151 812.095 807.931 801.098 813.041 784.315Q813.607 782.401 814.08 780.461Q814.552 778.521 814.93 776.56Q815.307 774.6 815.588 772.623Q815.87 770.647 816.054 768.659Q816.239 766.671 816.326 764.676Q816.414 762.682 816.404 760.685Q816.394 758.689 816.287 756.695Q816.18 754.702 815.976 752.716Q815.771 750.729 815.47 748.756Q815.17 746.782 814.773 744.825Q814.376 742.869 813.885 740.934Q813.393 738.999 812.808 737.09Q812.222 735.181 811.545 733.303Q810.867 731.425 810.098 729.583Q809.33 727.74 808.473 725.937Q807.615 724.134 806.671 722.375Q805.531 720.317 804.26 718.338Q802.99 716.358 801.594 714.465Q800.198 712.572 798.682 710.773Q797.167 708.974 795.539 707.277Q793.91 705.579 792.175 703.991Q790.44 702.403 788.606 700.93Q786.772 699.457 784.847 698.105Q782.922 696.754 780.913 695.53C774.744 691.815 768.132 689.876 761.485 687.296C758.767 686.241 756.175 684.788 753.423 683.87C749.361 682.514 744.917 681.601 741.03 679.792C740.006 679.316 738.484 678.429 737.893 677.42C735.935 674.081 736.524 658.516 737.611 654.598C738.107 652.809 738.769 651.772 740.208 650.623C741.917 650.2 743.077 650.16 744.595 651.199C746.004 652.164 746.421 653.465 746.543 655.074C747.181 663.499 746.476 672.028 747.019 680.44Q779.433 680.826 811.848 680.535C811.686 660.039 809.646 641.723 794.297 626.559C784.86 617.237 771.481 610.926 758.353 609.235Q758.226 599.883 757.881 590.537Q742.405 590.51 726.93 590.681Z"/>
	<path fill="white" d="M726.759 608.903L726.93 590.681Q742.405 590.51 757.881 590.537Q758.226 599.883 758.353 609.235C771.481 610.926 784.86 617.237 794.297 626.559C809.646 641.723 811.686 660.039 811.848 680.535Q779.433 680.826 747.019 680.44C746.476 672.028 747.181 663.499 746.543 655.074C746.421 653.465 746.004 652.164 744.595 651.199C743.077 650.16 741.917 650.2 740.208 650.623C738.769 651.772 738.107 652.809 737.611 654.598C736.524 658.516 735.935 674.081 737.893 677.42C738.484 678.429 740.006 679.316 741.03 679.792C744.917 681.601 749.361 682.514 753.423 683.87C756.175 684.788 758.767 686.241 761.485 687.296C768.132 689.876 774.744 691.815 780.913 695.53Q782.922 696.754 784.847 698.105Q786.772 699.457 788.606 700.93Q790.44 702.402 792.175 703.991Q793.91 705.579 795.538 707.277Q797.167 708.974 798.682 710.773Q800.198 712.572 801.594 714.465Q802.99 716.358 804.26 718.338Q805.531 720.317 806.671 722.375Q807.615 724.134 808.473 725.937Q809.33 727.74 810.098 729.583Q810.867 731.425 811.545 733.303Q812.222 735.181 812.808 737.09Q813.393 738.999 813.885 740.934Q814.376 742.869 814.773 744.825Q815.169 746.782 815.47 748.756Q815.771 750.729 815.975 752.716Q816.18 754.702 816.287 756.695Q816.394 758.689 816.404 760.685Q816.414 762.682 816.326 764.676Q816.239 766.671 816.054 768.659Q815.87 770.647 815.588 772.623Q815.307 774.6 814.93 776.56Q814.552 778.521 814.08 780.461Q813.607 782.401 813.041 784.315C807.931 801.098 797.151 812.095 781.956 820.164C775.115 823.417 767.843 824.769 760.441 826.028L760.616 846.222Q743.299 845.866 725.978 846.029C725.943 839.5 726.273 832.931 726.472 826.404C713.839 824.562 702.95 820.391 693.145 812.02C673.528 795.27 671.314 769.06 669.555 745.093C689.239 744.612 708.847 744.723 728.531 744.993C717.385 739.623 705.215 734.502 695.423 726.847Q694.25 725.927 693.124 724.95Q691.997 723.974 690.92 722.943Q689.842 721.913 688.817 720.831Q687.791 719.749 686.82 718.618Q685.849 717.488 684.934 716.31Q684.019 715.133 683.163 713.913Q682.307 712.693 681.511 711.432Q680.716 710.171 679.983 708.873Q679.25 707.574 678.582 706.242Q677.914 704.909 677.312 703.546Q676.709 702.182 676.174 700.79Q675.64 699.399 675.174 697.983Q674.708 696.567 674.312 695.129Q673.915 693.692 673.59 692.237Q673.265 690.783 673.011 689.314Q672.757 687.845 672.576 686.365C670.302 666.663 672.224 646.916 685.076 630.96C695.563 617.94 710.298 610.606 726.759 608.903ZM737.776 601.249L737.053 601.791C736.264 607.382 736.969 613.4 736.871 619.061C720.349 619.47 706.57 622.916 694.787 635.262C684.202 646.354 680.958 660.886 681.401 675.863C681.864 691.5 686.334 704.722 697.862 715.614C701.986 719.511 706.619 722.737 711.58 725.476C720.282 730.281 748.518 741.385 753.163 747.563C756.926 752.567 757.434 760.492 757.618 766.537C757.842 773.859 758.652 786.261 753.407 791.986C750.785 794.848 746.569 794.57 743.002 794.579C738.941 794.589 735.034 794.082 732.098 790.958C725.898 784.363 727.844 763.239 727.915 753.975L680.236 754.467C681.621 772.041 685.053 792.064 699.255 804.12C709.91 813.166 723.029 816.102 736.645 817.087L736.778 835.92Q743.169 835.992 749.561 835.999Q749.461 826.572 749.488 817.145C765.759 815.608 783.156 811.587 794.137 798.386C804.371 786.085 806.964 768.215 805.49 752.749C803.867 735.723 796.94 720.878 783.577 709.916Q780.456 707.355 777.023 705.231Q773.59 703.108 769.905 701.458C761.563 697.647 736.708 690.083 731.719 684.809C728.432 681.333 727.493 676.127 727.031 671.523C726.251 663.767 725.644 650.288 730.94 643.918C733.129 641.285 736.111 640.332 739.436 640.108C743.669 639.822 748.916 640.035 752.225 642.995C756.536 646.851 756.749 654.097 756.845 659.489Q756.904 664.746 756.873 670.004L784.4 669.93C790.06 669.91 795.885 670.152 801.51 669.544C801.366 656.658 797.631 643.528 788.241 634.298C777.484 623.725 762.104 619.912 747.508 619.146L747.516 601.005L737.776 601.249ZM738.374 750.333C737.512 761.253 737.023 773.085 737.962 784C741.036 783.996 744.121 784.045 747.193 783.955C748.994 776.903 749.544 761.847 745.797 755.489C744.038 752.505 741.601 751.266 738.374 750.333Z"/>
	<path fill="#173051" d="M736.871 619.061C736.969 613.4 736.264 607.382 737.053 601.791L737.776 601.249L747.516 601.005L747.508 619.146C762.104 619.912 777.484 623.725 788.241 634.298C797.631 643.528 801.366 656.658 801.51 669.544C795.885 670.152 790.06 669.91 784.4 669.93L756.873 670.004Q756.904 664.746 756.845 659.489C756.749 654.097 756.536 646.851 752.225 642.995C748.916 640.035 743.669 639.822 739.436 640.108C736.111 640.332 733.129 641.285 730.94 643.918C725.644 650.288 726.251 663.767 727.031 671.523C727.493 676.127 728.432 681.333 731.719 684.809C736.708 690.083 761.563 697.647 769.905 701.458Q773.59 703.108 777.023 705.231Q780.456 707.355 783.577 709.916C796.94 720.878 803.867 735.723 805.49 752.749C806.964 768.215 804.371 786.085 794.137 798.386C783.156 811.587 765.759 815.608 749.488 817.145Q749.461 826.572 749.561 835.999Q743.169 835.992 736.778 835.92L736.645 817.087C723.029 816.102 709.91 813.166 699.255 804.12C685.053 792.064 681.621 772.041 680.236 754.467L727.915 753.975C727.844 763.239 725.898 784.363 732.098 790.958C735.034 794.082 738.941 794.589 743.002 794.579C746.569 794.57 750.785 794.848 753.407 791.986C758.652 786.261 757.842 773.859 757.618 766.537C757.434 760.492 756.926 752.567 753.163 747.563C748.518 741.385 720.282 730.281 711.58 725.476C706.619 722.737 701.986 719.511 697.862 715.614C686.334 704.722 681.864 691.5 681.401 675.863C680.958 660.886 684.202 646.354 694.787 635.262C706.57 622.916 720.349 619.47 736.871 619.061Z"/>
	<path fill="#173051" d="M737.962 784C737.023 773.085 737.512 761.253 738.374 750.333C741.601 751.266 744.038 752.505 745.797 755.489C749.544 761.847 748.994 776.903 747.193 783.955C744.121 784.045 741.036 783.996 737.962 784Z"/>
</svg>
